#!OML:ASF F:\VICON\USERDATA\INSTALL\rory3\rory3.ASF
:FULLY-SPECIFIED
:DEGREES
338
root -0.503923 16.9398 -18.8952 -155.597 -18.2057 -185.83
lowerback -5.27353 -0.374836 -2.19622
upperback -8.2178 -1.12432 1.0316
thorax -5.5337 -0.701248 2.32672
lowerneck -23.7795 -5.1349 -7.44004
upperneck 26.8628 -5.74534 1.9859
head 13.2913 -3.22759 0.914556
rclavicle 9.59136e-015 -3.18055e-015
rhumerus -5.86243 36.2934 -40.1863
rradius 40.728
rwrist 26.6125
rhand -26.7731 51.4572
rfingers 7.12502
rthumb -0.200975 21.4775
lclavicle 9.59136e-015 -3.18055e-015
lhumerus 36.0116 -61.7077 4.05571
lradius 65.7254
lwrist -39.6769
lhand -34.6107 -7.71073
lfingers 7.12502
lthumb -7.769 22.1265
rfemur -64.2359 5.84743 3.03505
rtibia 41.8278
rfoot -42.5046 -8.65389
rtoes 64.7813
lfemur -23.921 -8.33245 -28.7661
ltibia 32.9691
lfoot -15.7487 12.7262
ltoes -21.2875
339
root -0.498124 17.0302 -19.1369 -154.15 -19.3837 -185.975
lowerback -5.2936 -0.249002 -1.01183
upperback -10.1822 -1.32723 0.386086
thorax -7.67887 -1.00598 1.04882
lowerneck -22.7318 -5.05425 -6.60207
upperneck 26.4273 -5.82516 1.31075
head 12.8494 -3.28661 0.527668
rclavicle 5.30755e-014 1.90833e-014
rhumerus -10.3684 35.4207 -40.7791
rradius 38.49
rwrist 25.401
rhand -25.7367 51.0753
rfingers 7.12502
rthumb 0.800008 21.0971
lclavicle 5.30755e-014 1.90833e-014
lhumerus 35.455 -63.8507 0.893646
lradius 64.0788
lwrist -40.5282
lhand -34.8257 -6.83671
lfingers 7.12502
lthumb -7.97657 22.9928
rfemur -63.8167 5.79218 2.94722
rtibia 41.7617
rfoot -43.0117 -5.12186
rtoes 65.2156
lfemur -23.9554 -8.67859 -27.6864
ltibia 31.4565
lfoot -13.8485 10.6843
ltoes -20.6368
340
root -0.48866 17.1109 -19.3781 -152.672 -20.9024 -186.683
lowerback -7.64866 -0.942499 -1.34955
upperback -9.94893 -2.23647 0.72499
thorax -6.04484 -1.45483 1.50824
lowerneck -24.1075 -5.08215 -6.59647
upperneck 24.6837 -5.32041 0.769892
head 12.3848 -3.03214 0.41589
rclavicle -3.29734e-014 7.15625e-015
rhumerus -9.98671 33.6886 -37.7561
rradius 35.9913
rwrist 25.0119
rhand -25.7379 49.2586
rfingers 7.12502
rthumb 0.798934 19.2803
lclavicle -3.29734e-014 7.15625e-015
lhumerus 32.7823 -62.5162 0.492607
lradius 61.765
lwrist -41.1445
lhand -35.1565 -5.9224
lfingers 7.12502
lthumb -8.29579 23.8947
rfemur -63.1512 6.19706 1.63666
rtibia 41.6077
rfoot -43.2346 -3.48418
rtoes 65.3168
lfemur -23.8067 -8.79775 -26.933
ltibia 29.9748
lfoot -11.7022 7.30947
ltoes -14.7049
341
root -0.518356 17.2041 -19.6426 -151.426 -22.7457 -187.185
lowerback -8.47207 -1.11634 -0.0640607
upperback -11.177 -2.79429 0.210227
thorax -6.99145 -1.95002 0.263575
lowerneck -23.5778 -5.23097 -6.78827
upperneck 23.5485 -5.42863 0.802602
head 11.8519 -3.0651 0.469722
rclavicle -4.29872e-014 1.82882e-014
rhumerus -13.0809 32.6472 -36.8835
rradius 33.9643
rwrist 25.4959
rhand -25.1723 47.6798
rfingers 7.12502
rthumb 1.34516 17.7043
lclavicle -4.29872e-014 1.82882e-014
lhumerus 32.1568 -63.8046 -2.37629
lradius 59.6802
lwrist -41.606
lhand -35.7192 -4.61403
lfingers 7.12502
lthumb -8.83886 25.1809
rfemur -62.1908 6.25967 0.717794
rtibia 41.4469
rfoot -42.7737 -6.41007
rtoes 65.4015
lfemur -23.1781 -8.73969 -25.8444
ltibia 28.3518
lfoot -8.65271 3.09604
ltoes 1.13346
342
root -0.486985 17.2786 -19.9255 -149.513 -23.269 -188.815
lowerback -9.62465 -1.36613 -1.37439
upperback -12.359 -3.41699 -0.328696
thorax -7.64657 -2.31625 0.416435
lowerneck -23.3997 -5.23944 -6.82356
upperneck 22.4813 -5.33397 0.706267
head 11.4049 -3.0068 0.476833
rclavicle -2.31584e-014 -3.18055e-015
rhumerus -15.4623 31.2651 -35.4417
rradius 31.9581
rwrist 26.5414
rhand -24.4726 46.9392
rfingers 7.12502
rthumb 2.02091 16.9691
lclavicle -2.31584e-014 -3.18055e-015
lhumerus 31.1546 -64.9014 -4.92052
lradius 57.659
lwrist -41.5311
lhand -35.5831 -4.84583
lfingers 7.12502
lthumb -8.70751 24.9546
rfemur -62.5497 10.0432 -4.35715
rtibia 41.3979
rfoot -45.7267 -8.95411
rtoes 64.9664
lfemur -22.6885 -8.2325 -25.7681
ltibia 26.5895
lfoot -3.91552 0.535545
ltoes 23.074
343
root -0.46513 17.3531 -20.1804 -147.918 -24.2241 -190.242
lowerback -10.227 -1.68803 -2.07936
upperback -13.5354 -4.17797 -0.808415
thorax -8.65412 -2.7874 0.316855
lowerneck -22.8161 -5.12983 -6.67038
upperneck 20.939 -5.12836 0.430021
head 10.7004 -2.90064 0.421595
rclavicle 5.73494e-014 3.97569e-015
rhumerus -17.4341 29.7321 -33.5677
rradius 29.9009
rwrist 27.8917
rhand -24.4642 46.6318
rfingers 7.12502
rthumb 2.02909 16.6617
lclavicle 5.73494e-014 3.97569e-015
lhumerus 30.2779 -65.9321 -7.41446
lradius 55.3489
lwrist -41.9728
lhand -34.3367 -6.07869
lfingers 7.12502
lthumb -7.50453 23.7682
rfemur -62.5312 12.5343 -7.85803
rtibia 41.3293
rfoot -48.2341 -10.4396
rtoes 64.3323
lfemur -21.575 -7.01854 -25.4535
ltibia 24.9008
lfoot 0.408633 3.02246
ltoes 31.5147
344
root -0.45496 17.4298 -20.4168 -146.543 -25.741 -191.235
lowerback -11.7902 -2.24883 -2.25934
upperback -13.6587 -4.96461 -0.850001
thorax -7.91491 -3.22414 0.241798
lowerneck -23.3317 -5.30576 -7.28442
upperneck 18.4266 -5.03313 0.594086
head 9.90086 -2.80878 0.615751
rclavicle 2.61402e-014 -1.35174e-014
rhumerus -17.6378 27.2285 -30.4381
rradius 27.5276
rwrist 29.8581
rhand -24.0915 45.5749
rfingers 7.12502
rthumb 2.38899 15.6085
lclavicle 2.61402e-014 -1.35174e-014
lhumerus 29.6235 -65.3667 -9.48592
lradius 52.5395
lwrist -41.9344
lhand -32.9654 -6.36961
lfingers 7.12502
lthumb -6.18084 23.5202
rfemur -62.1429 14.1218 -9.78557
rtibia 41.214
rfoot -50.6252 -10.5667
rtoes 63.8766
lfemur -20.0487 -5.20984 -24.5729
ltibia 23.4974
lfoot 3.13877 7.38594
ltoes 39.5124
